<svg width="299" height="438" viewBox="0 0 299 438" fill="none" xmlns="http://www.w3.org/2000/svg">
<path d="M126.283 37.0993C133.338 16.1102 136.866 5.61566 142.166 2.81495C146.551 0.497791 151.797 0.497791 156.182 2.81495C161.482 5.61566 165.01 16.1102 172.065 37.0993L284.302 370.992C294.912 402.555 300.217 418.336 296.542 425.749C293.509 431.869 287.561 436.018 280.769 436.751C272.544 437.639 259.566 427.21 233.61 406.352L209.684 387.125C187.869 369.595 176.962 360.83 164.831 357.551C154.577 354.779 143.771 354.779 133.517 357.551C121.386 360.83 110.479 369.595 88.6638 387.125L64.7376 406.352C38.782 427.21 25.8041 437.639 17.5786 436.751C10.7871 436.018 4.83944 431.869 1.80572 425.748C-1.86853 418.336 3.43624 402.555 14.0458 370.992L126.283 37.0993Z" fill="#0BACEC" stroke="#E0F3FE"/>
</svg>
